<?xml version="1.0" encoding="UTF-8"?>
<!DOCTYPE svg PUBLIC "-//W3C//DTD SVG 1.1//EN" "http://www.w3.org/Graphics/SVG/1.1/DTD/svg11.dtd">
<svg xmlns="http://www.w3.org/2000/svg" version="1.1" width="96px" height="96px" style="shape-rendering:geometricPrecision; text-rendering:geometricPrecision; image-rendering:optimizeQuality; fill-rule:evenodd; clip-rule:evenodd" xmlns:xlink="http://www.w3.org/1999/xlink">
<g><path style="opacity:0.973" fill="#484d55" d="M 39.5,3.5 C 57.1615,2.66019 64.9948,10.9935 63,28.5C 58.5404,39.6475 50.3738,43.8142 38.5,41C 35.1991,39.6818 32.1991,37.8484 29.5,35.5C 25.2361,41.2016 19.5694,43.0349 12.5,41C 2.83846,34.0496 2.17179,26.383 10.5,18C 15.7059,15.1241 21.0392,14.9574 26.5,17.5C 28.0899,10.2448 32.4232,5.57812 39.5,3.5 Z"/></g>
<g><path style="opacity:1" fill="#efe2aa" d="M 40.5,8.5 C 54.8968,8.71455 60.3968,15.7145 57,29.5C 52.5316,36.0849 46.365,38.2515 38.5,36C 31.717,31.6657 29.217,25.499 31,17.5C 33.4057,13.5915 36.5724,10.5915 40.5,8.5 Z"/></g>
<g><path style="opacity:1" fill="#fefdfa" d="M 42.5,18.5 C 47.7083,18.369 49.3749,20.7024 47.5,25.5C 40.7892,26.7881 39.1225,24.4548 42.5,18.5 Z"/></g>
<g><path style="opacity:1" fill="#eadea8" d="M 15.5,20.5 C 23.6417,20.4807 26.8084,24.4807 25,32.5C 24.5,34.3333 23.3333,35.5 21.5,36C 13.3809,37.8745 9.54759,34.7078 10,26.5C 11.3597,23.9774 13.193,21.9774 15.5,20.5 Z"/></g>
<g><path style="opacity:0.897" fill="#464c55" d="M 85.5,42.5 C 87.1439,42.2865 88.6439,42.6198 90,43.5C 90.6667,58.1667 90.6667,72.8333 90,87.5C 89.1074,88.0814 88.1074,88.4148 87,88.5C 81.8871,86.2719 77.2204,83.2719 73,79.5C 72.3333,70.1667 72.3333,60.8333 73,51.5C 77.3221,48.601 81.4887,45.601 85.5,42.5 Z"/></g>
<g><path style="opacity:0.946" fill="#454b54" d="M 13.5,44.5 C 29.9037,44.0446 46.237,44.5446 62.5,46C 64.3783,47.5429 65.8783,49.3762 67,51.5C 67.6667,61.8333 67.6667,72.1667 67,82.5C 64.1667,85.3333 61.3333,88.1667 58.5,91C 42.0996,91.955 25.7663,91.6217 9.5,90C 7.38343,88.2691 5.88343,86.1024 5,83.5C 4.33333,73.1667 4.33333,62.8333 5,52.5C 6.44474,48.218 9.27807,45.5513 13.5,44.5 Z"/></g>
<g><path style="opacity:1" fill="#b6a9c7" d="M 62.5,54.5 C 65.1831,75.6082 56.0165,82.9415 35,76.5C 27.5,76.3333 20,76.1667 12.5,76C 12,75.5 11.5,75 11,74.5C 10.5004,67.5079 10.3337,60.5079 10.5,53.5C 11.2899,52.2058 12.2899,51.0391 13.5,50C 28.8333,49.3333 44.1667,49.3333 59.5,50C 61.1412,51.129 62.1412,52.629 62.5,54.5 Z"/></g>
<g><path style="opacity:1" fill="#b7aac8" d="M 83.5,50.5 C 84.6557,57.9887 84.8223,65.6554 84,73.5C 82.0281,71.7682 79.8614,70.4348 77.5,69.5C 77.3341,64.4889 77.5007,59.4889 78,54.5C 79.7742,53.035 81.6075,51.7017 83.5,50.5 Z"/></g>
<g><path style="opacity:1" fill="#9f96b0" d="M 83.5,50.5 C 83.56,49.9569 83.8933,49.6236 84.5,49.5C 85.8333,60.1667 85.8333,70.8333 84.5,81.5C 82.5,80.1667 80.5,78.8333 78.5,77.5C 77.52,74.9135 77.1866,72.2469 77.5,69.5C 79.8614,70.4348 82.0281,71.7682 84,73.5C 84.8223,65.6554 84.6557,57.9887 83.5,50.5 Z"/></g>
<g><path style="opacity:1" fill="#a297b2" d="M 10.5,53.5 C 10.3337,60.5079 10.5004,67.5079 11,74.5C 11.5,75 12,75.5 12.5,76C 20,76.1667 27.5,76.3333 35,76.5C 56.0165,82.9415 65.1831,75.6082 62.5,54.5C 63.6566,62.6563 63.8232,70.9896 63,79.5C 60.8333,81.6667 58.6667,83.8333 56.5,86C 42.1667,86.6667 27.8333,86.6667 13.5,86C 12.5838,85.6258 11.7504,85.1258 11,84.5C 9.88018,79.1068 9.38018,73.6068 9.5,68C 9.50074,62.9881 9.83408,58.1547 10.5,53.5 Z"/></g>
</svg>
